<svg width="37" height="15" viewBox="0 0 37 15" fill="none" xmlns="http://www.w3.org/2000/svg">
<g clip-path="url(#clip0_12_12413)">
<path d="M6.91114 1.93387C6.48926 2.44047 5.81412 2.84018 5.13905 2.78303C5.05468 2.09805 5.38515 1.37011 5.77194 0.920518C6.19381 0.399645 6.93223 0.028541 7.52996 0C7.60027 0.713596 7.32598 1.41292 6.91114 1.93387ZM7.52293 2.91867C6.54544 2.86159 5.70865 3.48236 5.24452 3.48236C4.77343 3.48236 4.06313 2.94721 3.28962 2.96148C2.28409 2.97575 1.34879 3.55371 0.835437 4.4743C-0.21939 6.31541 0.561219 9.04143 1.58082 10.54C2.08011 11.2821 2.67784 12.0956 3.46541 12.0671C4.21086 12.0385 4.50617 11.5747 5.40631 11.5747C6.31341 11.5747 6.57364 12.0671 7.36121 12.0528C8.1769 12.0385 8.69026 11.3107 9.18954 10.5685C9.75908 9.72648 9.99118 8.90579 10.0052 8.86297C9.99118 8.8487 8.4301 8.24221 8.41604 6.4153C8.40197 4.88821 9.64665 4.16035 9.7029 4.11754C8.99963 3.06138 7.90269 2.94721 7.52293 2.91867ZM13.1697 0.849166V11.9744H14.8714V8.17086H17.2272C19.3789 8.17086 20.8909 6.67231 20.8909 4.50291C20.8909 2.33358 19.4071 0.849237 17.2834 0.849237H13.1697L13.1697 0.849166ZM14.8714 2.30497H16.8334C18.3101 2.30497 19.1539 3.10419 19.1539 4.50997C19.1539 5.91576 18.3101 6.72219 16.8263 6.72219H14.8714V2.30497ZM23.999 12.0599C25.0679 12.0599 26.0594 11.5105 26.5095 10.6399H26.5446V11.9743H28.1198V6.43671C28.1198 4.83113 26.8541 3.79638 24.9061 3.79638C23.0989 3.79638 21.7628 4.8454 21.7136 6.28687H23.2466C23.3732 5.60181 23.999 5.15222 24.8569 5.15222C25.8977 5.15222 26.4813 5.64462 26.4813 6.55094V7.16457L24.3576 7.29301C22.3816 7.41431 21.3128 8.235 21.3128 9.66226C21.3128 11.1037 22.4168 12.0599 23.999 12.0599ZM24.4561 10.7398C23.549 10.7398 22.9723 10.2974 22.9723 9.61938C22.9723 8.92013 23.5279 8.51335 24.5897 8.44913L26.4813 8.32783V8.95573C26.4813 9.99762 25.6094 10.7398 24.4561 10.7398H24.4561ZM30.2224 15C31.882 15 32.6625 14.3578 33.3446 12.4096L36.3333 3.90341H34.6034L32.5992 10.4757H32.5641L30.56 3.90341H28.7809L31.6639 12.0028L31.5093 12.4952C31.2491 13.3301 30.8272 13.6513 30.0747 13.6513C29.9411 13.6513 29.681 13.637 29.5755 13.6228V14.9572C29.6739 14.9857 30.0958 15 30.2224 15Z" fill="#D7D7D7"/>
</g>
<defs>
<clipPath id="clip0_12_12413">
<rect width="36" height="15" fill="white" transform="translate(0.333252)"/>
</clipPath>
</defs>
</svg>
