<svg width="36" height="15" viewBox="0 0 36 15" fill="none" xmlns="http://www.w3.org/2000/svg">
<path d="M5.94449 0.000373892C4.8425 0.000444906 3.76222 0.300474 2.82428 0.866957C1.88634 1.43344 1.12767 2.24408 0.632986 3.20835C0.216767 4.01938 0 4.91448 0 5.82217C0 6.72985 0.216767 7.62496 0.632986 8.43599C1.12767 9.40026 1.88634 10.2109 2.82428 10.7774C3.76222 11.3439 4.8425 11.6439 5.94449 11.644C7.54949 11.644 8.89949 11.1269 9.88499 10.2383C11.007 9.22476 11.655 7.72653 11.655 5.9551C11.6546 5.55825 11.6195 5.16217 11.55 4.7712H5.94599V7.01267H9.15599C9.09065 7.37073 8.95197 7.71213 8.74832 8.01631C8.54467 8.3205 8.28025 8.58117 7.97099 8.78264C7.43699 9.13663 6.74999 9.33933 5.94599 9.33933C4.39499 9.33933 3.07949 8.31554 2.60849 6.93629C2.35973 6.21351 2.35973 5.43082 2.60849 4.70804C3.07949 3.32732 4.39499 2.305 5.94599 2.305C6.79349 2.29143 7.61245 2.60482 8.22599 3.1775L9.92399 1.5177C8.8481 0.527461 7.42092 -0.0163336 5.94449 0.000373892ZM15.696 0.808242V10.9433H17.025V6.83788H19.2225C20.127 6.83788 20.8875 6.54998 21.5055 5.97419C21.8131 5.70415 22.0575 5.37217 22.2219 5.00101C22.3863 4.62985 22.4669 4.22827 22.458 3.8238C22.4642 3.42141 22.3825 3.02237 22.2182 2.65349C22.0539 2.28461 21.8109 1.95444 21.5055 1.68515C21.2031 1.39835 20.8456 1.17307 20.4537 1.0223C20.0619 0.871542 19.6434 0.798288 19.2225 0.806773L15.696 0.808242ZM19.3365 2.05677C19.5684 2.06073 19.7972 2.11022 20.0092 2.20231C20.2213 2.2944 20.4123 2.42722 20.571 2.5929C20.74 2.75387 20.8743 2.94638 20.9661 3.15906C21.0578 3.37174 21.1051 3.60027 21.1051 3.83114C21.1051 4.06201 21.0578 4.29054 20.9661 4.50322C20.8743 4.71589 20.74 4.90841 20.571 5.06938C20.4011 5.24165 20.1963 5.37728 19.9698 5.46758C19.7433 5.55788 19.5 5.60086 19.2555 5.59376H17.025V2.05677H19.2555C19.2825 2.05615 19.3095 2.05615 19.3365 2.05677ZM25.5225 3.78267C24.2595 3.78267 23.307 4.23507 22.662 5.14135L23.8335 5.86256C24.2655 5.25005 24.8535 4.94306 25.596 4.94306C26.0697 4.93736 26.5282 5.10678 26.88 5.4175C27.0532 5.55773 27.1923 5.73396 27.2873 5.9334C27.3822 6.13285 27.4306 6.3505 27.429 6.57055V6.86726C26.919 6.58377 26.268 6.44276 25.479 6.44276C24.5535 6.44276 23.814 6.65574 23.2605 7.08024C22.7055 7.50327 22.4295 8.07465 22.4295 8.79145C22.4235 9.11402 22.491 9.43385 22.6273 9.7276C22.7635 10.0214 22.965 10.2816 23.217 10.4894C23.742 10.9419 24.3945 11.1695 25.1745 11.1695C26.0895 11.1695 26.8215 10.7729 27.372 9.97975H27.429V10.9418H28.701V6.66896C28.701 5.77296 28.416 5.06791 27.849 4.55381C27.279 4.03972 26.505 3.78267 25.5225 3.78267ZM28.917 4.00887L31.836 10.5041L30.189 14H31.5615L36 4.0074H34.5525L32.5005 8.98828H32.4705L30.3615 4.00887H28.917ZM25.698 7.48711C26.439 7.48711 27.018 7.64868 27.432 7.97183C27.432 8.51824 27.2115 8.99415 26.772 9.40102C26.3753 9.78956 25.8375 10.0082 25.2765 10.0091C24.9016 10.0161 24.5359 9.8957 24.2415 9.66836C24.1045 9.57132 23.9932 9.44366 23.9167 9.29599C23.8403 9.14832 23.801 8.98491 23.802 8.81936C23.802 8.44186 23.982 8.129 24.3465 7.86901C24.7065 7.6149 25.158 7.48711 25.698 7.48711Z" fill="#D7D7D7"/>
</svg>
