<svg width="78" height="10" viewBox="0 0 78 10" fill="none" xmlns="http://www.w3.org/2000/svg">
<path d="M11.2202 9.85296V5.4413C11.2202 3.74979 10.1934 2.64713 8.43322 2.64713C7.55332 2.64713 6.59992 2.94121 5.93983 3.89717C5.42672 3.08826 4.69347 2.64713 3.59343 2.64713C2.85984 2.64713 2.12693 2.86753 1.53999 3.67644V2.79417H0V9.85296H1.53999V5.95579C1.53999 4.70608 2.20009 4.11757 3.22697 4.11757C4.25319 4.11757 4.76696 4.77944 4.76696 5.95579V9.85296H6.30696V5.95579C6.30696 4.70608 7.03987 4.11757 7.99327 4.11757C9.02015 4.11757 9.53326 4.77944 9.53326 5.95579V9.85296H11.2202ZM34.0265 2.79417H31.5334V0.661865H29.9935V2.79417H28.6001V4.19092H29.9931V7.42656C29.9931 9.04438 30.6532 10 32.4134 10C33.0734 10 33.8064 9.7796 34.3201 9.48551L33.8799 8.16179C33.4399 8.45587 32.9268 8.52956 32.56 8.52956C31.8267 8.52956 31.5334 8.08843 31.5334 7.35287V4.19092H34.0265V2.79417ZM47.08 2.64679C46.2001 2.64679 45.6135 3.08826 45.2467 3.67644V2.79417H43.7067V9.85296H45.2467V5.88243C45.2467 4.70608 45.7598 4.04422 46.7132 4.04422C47.0065 4.04422 47.3733 4.1179 47.6666 4.19126L48.1066 2.72082C47.8133 2.64713 47.3733 2.64713 47.08 2.64713V2.64679ZM27.3534 3.38235C26.6198 2.86752 25.5933 2.64713 24.4932 2.64713C22.7334 2.64713 21.5602 3.52939 21.5602 4.92648C21.5602 6.10316 22.4401 6.7647 23.9801 6.98543L24.7134 7.05912C25.5201 7.20583 25.9601 7.42656 25.9601 7.79434C25.9601 8.30883 25.3735 8.6766 24.3466 8.6766C23.32 8.6766 22.5133 8.30883 21.9999 7.94138L21.2666 9.11773C22.0733 9.70591 23.1734 10 24.2731 10C26.3265 10 27.5001 9.04438 27.5001 7.72065C27.5001 6.47061 26.5467 5.80874 25.0798 5.58835L24.3466 5.51466C23.6865 5.44097 23.1734 5.29426 23.1734 4.85312C23.1734 4.3383 23.6865 4.04422 24.4932 4.04422C25.3735 4.04422 26.2534 4.41166 26.6933 4.63239L27.3534 3.38235ZM68.2735 2.64713C67.3932 2.64713 66.8066 3.08826 66.4399 3.67644V2.79417H64.8999V9.85296H66.4399V5.88243C66.4399 4.70608 66.9533 4.04422 67.9064 4.04422C68.2 4.04422 68.5668 4.1179 68.8601 4.19126L69.3 2.72082C69.0067 2.64713 68.5668 2.64713 68.2735 2.64713ZM48.62 6.32356C48.62 8.45587 50.0865 10 52.3601 10C53.3867 10 54.1199 9.7796 54.8532 9.19142L54.1199 7.94138C53.5333 8.38252 52.9467 8.60292 52.2866 8.60292C51.0399 8.60292 50.16 7.72065 50.16 6.32356C50.16 5.00017 51.0399 4.11757 52.2866 4.04422C52.9467 4.04422 53.5333 4.26461 54.1199 4.70608L54.8532 3.45604C54.1199 2.86752 53.3867 2.64713 52.3601 2.64713C50.0865 2.64713 48.62 4.19126 48.62 6.32356ZM62.8468 6.32356V2.79417H61.3068V3.67644C60.7933 3.01491 60.0601 2.64713 59.1067 2.64713C57.1267 2.64713 55.5867 4.19126 55.5867 6.32356C55.5867 8.45587 57.1267 10 59.1067 10C60.1332 10 60.8668 9.63256 61.3068 8.97069V9.85296H62.8468V6.32356ZM57.1999 6.32356C57.1999 5.07352 58.0066 4.04422 59.3265 4.04422C60.5732 4.04422 61.4534 5.00017 61.4534 6.32356C61.4534 7.57361 60.5732 8.60292 59.3265 8.60292C58.0066 8.52923 57.1999 7.57361 57.1999 6.32356ZM38.7935 2.64713C36.74 2.64713 35.2732 4.11757 35.2732 6.32356C35.2732 8.52956 36.7397 10 38.8666 10C39.8932 10 40.9201 9.70591 41.7268 9.04438L40.9932 7.94138C40.4066 8.38252 39.6734 8.6766 38.9401 8.6766C37.9867 8.6766 37.0333 8.23547 36.8132 6.9851H42.0201V6.39725C42.0936 4.11757 40.7737 2.64713 38.7935 2.64713ZM38.7935 3.97053C39.7465 3.97053 40.407 4.55903 40.5533 5.66203H36.8867C37.0333 4.70608 37.6934 3.97053 38.7935 3.97053ZM77 6.32356V0H75.46V3.67644C74.9466 3.01491 74.2133 2.64713 73.2599 2.64713C71.28 2.64713 69.74 4.19126 69.74 6.32356C69.74 8.45587 71.28 10 73.2599 10C74.2868 10 75.0201 9.63256 75.46 8.97069V9.85296H77V6.32356ZM71.3535 6.32356C71.3535 5.07352 72.1599 4.04422 73.4801 4.04422C74.7268 4.04422 75.6067 5.00017 75.6067 6.32356C75.6067 7.57361 74.7268 8.60292 73.4801 8.60292C72.1599 8.52923 71.3535 7.57361 71.3535 6.32356ZM19.8733 6.32356V2.79417H18.3333V3.67644C17.8198 3.01491 17.0866 2.64713 16.1332 2.64713C14.1532 2.64713 12.6132 4.19126 12.6132 6.32356C12.6132 8.45587 14.1532 10 16.1332 10C17.1601 10 17.8933 9.63256 18.3333 8.97069V9.85296H19.8733V6.32356ZM14.1532 6.32356C14.1532 5.07352 14.96 4.04422 16.2798 4.04422C17.5265 4.04422 18.4068 5.00017 18.4068 6.32356C18.4068 7.57361 17.5265 8.60292 16.2798 8.60292C14.96 8.52923 14.1532 7.57361 14.1532 6.32356Z" fill="#D7D7D7"/>
</svg>
