<svg width="37" height="12" viewBox="0 0 37 12" fill="none" xmlns="http://www.w3.org/2000/svg">
<g clip-path="url(#clip0_12_12414)">
<path d="M14.3347 0.213651L9.62175 11.8189H6.54675L4.22775 2.55606C4.08675 1.98632 3.96525 1.77732 3.53625 1.53735C2.83725 1.14566 1.68225 0.778739 0.666748 0.549607L0.735748 0.213651H5.68575C6.00922 0.213316 6.32215 0.332342 6.56806 0.549243C6.81397 0.766144 6.97665 1.06663 7.02675 1.39647L8.25225 8.1125L11.2792 0.213651H14.3347ZM26.3842 8.03045C26.3962 4.96659 22.2802 4.79783 22.3087 3.42923C22.3177 3.01277 22.7017 2.56999 23.5417 2.45697C24.5262 2.36048 25.5176 2.5402 26.4112 2.97716L26.9212 0.515547C26.0512 0.177957 25.1297 0.00336981 24.2002 0C21.3247 0 19.3012 1.57915 19.2832 3.83796C19.2652 5.50845 20.7277 6.43891 21.8302 6.99626C22.9642 7.56444 23.3452 7.92982 23.3392 8.43762C23.3317 9.21791 22.4362 9.56006 21.5992 9.57399C20.1367 9.59721 19.2892 9.16682 18.6112 8.8417L18.0847 11.3838C18.7642 11.7058 20.0182 11.9876 21.3187 12C24.3742 12 26.3737 10.4425 26.3842 8.03045ZM33.9757 11.8189H36.6667L34.3192 0.213651H31.8352C31.5698 0.211112 31.3098 0.290934 31.0889 0.442764C30.868 0.594595 30.6963 0.81143 30.5962 1.06515L26.2327 11.8189H29.2867L29.8942 10.0849H33.6262L33.9757 11.8189ZM30.7312 7.70688L32.2612 3.34873L33.1432 7.70688H30.7312ZM18.4912 0.213651L16.0867 11.8189H13.1767L15.5842 0.213651H18.4912Z" fill="#D7D7D7"/>
</g>
<defs>
<clipPath id="clip0_12_12414">
<rect width="36" height="12" fill="white" transform="translate(0.666748)"/>
</clipPath>
</defs>
</svg>
